<svg xmlns="http://www.w3.org/2000/svg" width="186" height="226" viewBox="0 0 186 226">
  <g fill="none" fill-rule="evenodd" transform="translate(0 1)">
    <g fill="#97BB88" stroke="#979797">
      <polygon points="31.726 5.325 .619 46.687 3.647 97.268 31.726 104.299 71.382 99.692 75.221 133.802 86.009 153.715 75.221 172.22 96.638 222.787 125.174 224.357 137.971 204.509 141.336 169.481 157.755 158.118 157.755 128.476 184.939 80.295 162.462 82.239 131.798 29.849 134.395 22.633 112.561 13.314 98.879 19.97 76.696 13.314 75.221 0"/>
      <polygon points="180.999 156.435 161.8 169.785 157.498 179.068 166.174 195.104 177.67 169.785"/>
    </g>
    <text fill="#FFF" font-family="Roboto-Bold, Roboto" font-size="20" font-weight="bold" letter-spacing="-1.038">
      <tspan x="61" y="87">Afrika</tspan>
    </text>
  </g>
</svg>
