<svg xmlns="http://www.w3.org/2000/svg" width="317" height="259" viewBox="0 0 317 259">
  <g fill="none" fill-rule="evenodd" transform="translate(1 1)">
    <g fill="#F696AC" stroke="#979797">
      <polygon points="15.935 89.883 8.425 105.197 .348 107.86 4.901 119.845 26.029 119.845 22.797 143.22 50.555 192.151 96.307 164.247 83.569 151.918 68.442 155.503 63.918 138.487 86.833 149.639 107.897 155.503 120.945 167.442 125.583 164.247 139.304 209.062 148.922 202.383 148.922 185.816 173.17 164.247 186.388 182.206 195.417 177.769 198.418 205.819 213.13 223.667 204.375 202.383 204.375 192.151 214.723 209.062 225.158 197.133 221.881 185.816 213.13 171.922 231.96 164.247 246.104 160.332 251.318 145.706 251.318 135.824 236.862 118.299 231.96 107.86 246.104 111.855 260.422 129.166 260.422 107.86 269.2 89.883 263.241 69.244 243.531 62.831 257.633 49.269 288.895 44.856 288.895 62.831 305.15 78.565 296.792 49.269 307.669 51.933 315.975 44.856 305.15 36.527 315.975 29.234 221.881 20.558 123.909 0 100.175 11.616 77.731 11.616 68.442 24.164 29.101 24.164 29.101 36.527 35.774 99.629 30.736 99.629"/>
      <polygon points="189.585 218.506 214.899 249.676 218.729 240.355 211.976 226.711"/>
      <polygon points="219.085 253.456 234.851 249.676 243.106 256.596"/>
      <polygon points="227.466 223.597 233.511 240.355 248.424 242.352 254.817 212.854 248.424 209.062 237.103 223.597"/>
      <polygon points="254.284 233.686 254.284 249.676 259.622 241.681 265.401 247.248 265.401 237.985 272.69 226.061"/>
      <polygon points="267.097 207.019 270.57 214.439 274.859 209.062 274.859 202.293"/>
      <polygon points="259.968 174.601 255.538 188.437 259.968 196.401 268.1 200.771 273.127 196.401 262.051 187.686"/>
      <polygon points="274.194 119.845 271.149 129.166 281.333 129.166 292.139 115.85 285.788 101.868 292.139 101.868 296.316 91.881 281.333 94.359 285.788 115.751"/>
      <polygon points="266.2 67.722 277.379 89.883 281.698 84.557"/>
    </g>
    <text fill="#FFF" font-family="Roboto-Bold, Roboto" font-size="20" font-weight="bold" letter-spacing="-1.038">
      <tspan x="115" y="100">Azië</tspan>
    </text>
  </g>
</svg>
