<svg xmlns="http://www.w3.org/2000/svg" width="340" height="221" viewBox="0 0 340 221">
  <g fill="none" fill-rule="evenodd" transform="translate(0 1)">
    <g fill="#B283D2" stroke="#979797">
      <polygon points="56.471 170.76 41.169 126.091 56.471 106.845 62.073 59.727 .262 67.027 56.471 32.403 181.047 32.403 155.486 59.727 164.744 72.408 181.047 54.868 220.979 59.727 229.439 86.273 186.571 106.845 155.486 139.364 141.919 158.321 127.505 146 99.22 148.655 99.22 182.581 114.85 170.76 141.919 219 74.36 182.581 62.073 158.321"/>
      <polygon points="121.281 19.693 150.466 19.693 135.873 28.102"/>
      <polygon points="154.606 24.97 157.479 30.466 170.465 27.718"/>
      <polygon points="191.297 26.145 214.209 39.507 202.753 46.028 214.209 51.585 229.645 41.284 219.118 26.145 198.246 18.18"/>
      <polygon points="183.945 40.478 196.749 32.483 196.749 43.979"/>
      <polygon points="206.007 10.618 209.574 18.516 241.088 6.855 206.007 8.785"/>
      <polygon points="240.281 10.618 255.36 24.486 250.329 45.189 262.454 59.727 284.298 42.527 321.044 24.486 339.468 4.898 272.312 .184"/>
      <polygon points="128.41 171.805 141.302 166.911 153.694 178.106"/>
      <polygon points="155.618 184.35 162.939 178.086 171.166 184.35"/>
    </g>
    <text fill="#FFF" font-family="Roboto-Bold, Roboto" font-size="20" font-weight="bold" letter-spacing="-1.038">
      <tspan x="64" y="95">Noord-</tspan> <tspan x="64" y="121">Amerika</tspan>
    </text>
  </g>
</svg>
