<svg xmlns="http://www.w3.org/2000/svg" width="163" height="142" viewBox="0 0 163 142">
  <g fill="#F6F88D" fill-rule="evenodd" stroke="#979797" transform="translate(0 1)">
    <polygon points=".602 101.131 3.593 67.157 47.378 36.667 53.039 40 58.209 32 71.284 32 71.284 43.006 80.699 46.667 87.788 30 100.577 65.565 110.692 77.173 84.847 115.613 65.135 115.613 62.661 108.667 53.039 108.667 44.998 90.427"/>
    <polygon points="64.765 123.333 74.557 123.333 67.262 134.355"/>
    <polygon points="108.642 140 116.965 130.541 133.604 124.667 125.006 138"/>
    <polygon points="143.194 124.667 143.194 118.667 147.745 110.669 150.287 98.718 155.026 111.692 162.577 111.692"/>
    <polygon points="60.284 0 70.79 14 83.747 20.929 93.728 20.929 107.153 26.952 103.78 20.929 107.153 17.136 87.885 4.667 75.584 2.369"/>
  </g>
</svg>
